<svg xmlns="http://www.w3.org/2000/svg" viewBox="0 0 32.4 24"><defs><style>.cls-1{fill:#3dac73}</style></defs><title>family-icon</title><g id="Capa_2" data-name="Capa 2"><g id="Capa_1-2" data-name="Capa 1"><path class="cls-1" d="M31.88 20.1l-3.39.37-.59.06a3.69 3.69 0 0 0-.58-1.11l-.18-.21a2.48 2.48 0 0 0-1.61-1c-.18 0-.42-.11-.74-.21-2-.59-4-2.06-4.2-2.76a2 2 0 0 1 0-.75V14a5.37 5.37 0 0 0 1.32-2.1 13.19 13.19 0 0 0 .33-1.74A2.16 2.16 0 0 0 23 8.74l.24-1.31v-.11a2.07 2.07 0 0 0-.57-1.66 10.46 10.46 0 0 0-.21-2.28A6 6 0 0 0 21 .61 5.83 5.83 0 0 1 23.13 0c3.24.38 3.92 2.45 4.09 3.2a9.25 9.25 0 0 1 .13 2.38.58.58 0 0 1 .52.6l-.21 1.18a.57.57 0 0 1-.58.54c-.06.32-.1.51-.1.51a11.46 11.46 0 0 1-.27 1.54 4.52 4.52 0 0 1-1.17 1.6v.83a3.5 3.5 0 0 0 .06 1.09c.31 1.41 2.86 2.83 4.46 3.3 1.36.41 1 .17 1.66.88a10.94 10.94 0 0 1 .67 1.62.62.62 0 0 1-.51.83zm-31.36 0l3.39.37.59.06a3.69 3.69 0 0 1 .58-1.11l.18-.21a2.48 2.48 0 0 1 1.61-1c.18 0 .42-.11.74-.21 2-.59 4-2.06 4.2-2.76a2 2 0 0 0 0-.75V14a5.37 5.37 0 0 1-1.32-2.1 13.19 13.19 0 0 1-.33-1.74 2.16 2.16 0 0 1-.82-1.42l-.2-1.32v-.1a2.07 2.07 0 0 1 .57-1.66 10.46 10.46 0 0 1 .19-2.28A6 6 0 0 1 11.36.61 5.83 5.83 0 0 0 9.27 0C6 .39 5.32 2.45 5.16 3.2A9.25 9.25 0 0 0 5 5.58a.58.58 0 0 0-.52.6l.21 1.18a.57.57 0 0 0 .58.54c.06.32.1.51.1.51a11.46 11.46 0 0 0 .27 1.54 4.52 4.52 0 0 0 1.17 1.6v.83a3.5 3.5 0 0 1-.06 1.09c-.31 1.41-2.86 2.83-4.46 3.3-1.36.41-1 .17-1.66.88A10.94 10.94 0 0 0 0 19.27a.62.62 0 0 0 .52.83z"/><path class="cls-1" d="M22.4 23.66l3.92-.44a.71.71 0 0 0 .55-1 11.6 11.6 0 0 0-.77-1.87c-.71-.82-.34-.55-1.91-1-1.84-.55-4.79-2.19-5.14-3.82A3.94 3.94 0 0 1 19 14.3v-1a5.18 5.18 0 0 0 1.35-1.85 13.45 13.45 0 0 0 .32-1.78s0-.22.12-.59a.66.66 0 0 0 .62-.62l.25-1.36a.68.68 0 0 0-.6-.7A10.56 10.56 0 0 0 21 3.7c-.19-.87-1-3.26-4.72-3.7-3.74.44-4.53 2.83-4.72 3.7a10.56 10.56 0 0 0-.15 2.74.68.68 0 0 0-.6.7L11 8.5a.66.66 0 0 0 .62.62c.07.37.12.59.12.59a13.44 13.44 0 0 0 .32 1.78 5.18 5.18 0 0 0 1.35 1.85v1a3.94 3.94 0 0 1-.07 1.26c-.35 1.63-3.3 3.27-5.14 3.82-1.57.47-1.2.2-1.91 1a9.64 9.64 0 0 0-.83 1.87.71.71 0 0 0 .56 1l4 .44a55.85 55.85 0 0 0 6.16.34 55.84 55.84 0 0 0 6.22-.41z"/></g></g></svg>