<svg xmlns="http://www.w3.org/2000/svg" viewBox="0 0 32 32"><defs><style>.cls-1{fill:#f22053}.cls-2{fill:#101033}.cls-3{fill:#3dac73}.cls-4{fill:#fff}</style></defs><title>help-icon</title><g id="Capa_2" data-name="Capa 2"><g id="Capa_1-2" data-name="Capa 1"><path class="cls-1" d="M31.06 10.59A16 16 0 1 0 32 16a16 16 0 0 0-.94-5.41zm-7.86 15A12.33 12.33 0 0 1 20.86 27a12 12 0 0 1-9.72 0A11.81 11.81 0 0 1 9 25.75a12 12 0 1 1 18-14.61 12 12 0 0 1 0 9.72 12.05 12.05 0 0 1-3.8 4.74z"/><path class="cls-2" d="M28 16A12 12 0 1 1 16 4a12 12 0 0 1 12 12z"/><path class="cls-3" d="M23.17 25.58a12.13 12.13 0 0 1-14.35.15l.48-.14c1.61-.48 4.18-1.91 4.49-3.33a3.49 3.49 0 0 0 .06-1.1v-.84a4.54 4.54 0 0 1-1.18-1.62 11.91 11.91 0 0 1-.28-1.56s0-.19-.1-.52a.57.57 0 0 1-.54-.54l-.22-1.18a.6.6 0 0 1 .47-.6 9.25 9.25 0 0 1 .13-2.4c.17-.76.85-2.84 4.12-3.23 3.27.38 4 2.47 4.12 3.23a9.23 9.23 0 0 1 .13 2.4.6.6 0 0 1 .52.61l-.22 1.18a.57.57 0 0 1-.54.54c-.06.32-.1.52-.1.52a11.19 11.19 0 0 1-.28 1.56 4.49 4.49 0 0 1-1.18 1.62v.84a3.49 3.49 0 0 0 .07 1.1c.23 1.39 2.8 2.82 4.4 3.31z"/><path class="cls-4" d="M30.47 22.82a16 16 0 0 1-7.65 7.65l-2.51-3.28a12 12 0 0 0 6.88-6.87zM27.31 4.69a15.94 15.94 0 0 1 3.16 4.49l-3.27 2.5a12 12 0 0 0-6.88-6.87l2.51-3.28a15.94 15.94 0 0 1 4.48 3.16zM9.18 1.53l2.51 3.28a12 12 0 0 0-6.87 6.87l-3.29-2.5a16 16 0 0 1 7.65-7.65zM7.51 24.49a11.88 11.88 0 0 0 4.17 2.71l-2.5 3.27a16 16 0 0 1-7.65-7.65l3.28-2.51a11.88 11.88 0 0 0 2.7 4.18z"/></g></g></svg>