<svg xmlns="http://www.w3.org/2000/svg" viewBox="0 0 161 41"><defs><style>.cls-1{fill:#707070}.cls-2{fill:#ebf2ef}.cls-3{fill:#f22053}.cls-4{fill:#101033}.cls-5{fill:#3dac73}.cls-6{fill:#fff}.cls-7{fill:#24b27c}</style></defs><title>help-download-button</title><g id="Capa_2" data-name="Capa 2"><g id="Capa_1-2" data-name="Capa 1"><path class="cls-1" d="M21.16 12.1a3.27 3.27 0 0 1 1.3 1.25 3.51 3.51 0 0 1 .47 1.81 3.45 3.45 0 0 1-.47 1.84 3.33 3.33 0 0 1-1.31 1.24 4 4 0 0 1-1.91.45h-2.87v-7h2.91a3.92 3.92 0 0 1 1.88.41zm-.69 5.08a2.09 2.09 0 0 0 .8-.82 2.59 2.59 0 0 0 0-2.4 2.12 2.12 0 0 0-.83-.83 2.35 2.35 0 0 0-1.17-.29h-1.56v4.64h1.6a2.28 2.28 0 0 0 1.16-.3zm7.39-3.58a2.46 2.46 0 0 1 1 1 2.78 2.78 0 0 1 .34 1.4 2.83 2.83 0 0 1-.35 1.43 2.45 2.45 0 0 1-1 1 3.06 3.06 0 0 1-1.47.34 3.11 3.11 0 0 1-1.48-.34 2.44 2.44 0 0 1-1-1 2.83 2.83 0 0 1-.34-1.43 2.78 2.78 0 0 1 .35-1.42 2.45 2.45 0 0 1 1-1 3.11 3.11 0 0 1 1.48-.34 3.06 3.06 0 0 1 1.47.36zm-2.57 1.22a1.84 1.84 0 0 0 0 2.34 1.43 1.43 0 0 0 1.1.45 1.41 1.41 0 0 0 1.08-.45 1.84 1.84 0 0 0 0-2.34 1.41 1.41 0 0 0-1.08-.45 1.44 1.44 0 0 0-1.1.45zm4.03-1.51h1.34l1.31 4 1.27-4h1.31l1.29 4 1.28-4h1.31l-1.94 5.35h-1.33l-1.28-3.77-1.27 3.77h-1.33zm14.59.5a2.09 2.09 0 0 1 .53 1.51v3.34h-1.31v-3a1.21 1.21 0 0 0-.32-.89 1.17 1.17 0 0 0-.87-.32 1.32 1.32 0 0 0-1 .44 1.61 1.61 0 0 0-.37 1.1v2.63h-1.3V13.3h1.3v1a2 2 0 0 1 1.92-1 1.91 1.91 0 0 1 1.42.51zM46 11.23h1.3v7.42H46zm6.73 2.37a2.46 2.46 0 0 1 1 1 2.78 2.78 0 0 1 .34 1.4 2.83 2.83 0 0 1-.35 1.43 2.45 2.45 0 0 1-1 1 3.06 3.06 0 0 1-1.47.34 3.11 3.11 0 0 1-1.48-.34 2.44 2.44 0 0 1-1-1 2.83 2.83 0 0 1-.34-1.43 2.78 2.78 0 0 1 .35-1.42 2.45 2.45 0 0 1 1-1 3.11 3.11 0 0 1 1.48-.34 3.06 3.06 0 0 1 1.47.36zm-2.57 1.22a1.84 1.84 0 0 0 0 2.34 1.43 1.43 0 0 0 1.1.45 1.41 1.41 0 0 0 1.08-.45 1.84 1.84 0 0 0 0-2.34 1.41 1.41 0 0 0-1.08-.45 1.44 1.44 0 0 0-1.1.45zm8.2 3.83V18a1.76 1.76 0 0 1-.72.53 2.65 2.65 0 0 1-1 .18 2.16 2.16 0 0 1-1-.21 1.58 1.58 0 0 1-.65-.6 1.61 1.61 0 0 1-.23-.85 1.42 1.42 0 0 1 .53-1.17 2.39 2.39 0 0 1 1.5-.44h1.56v-.14a.9.9 0 0 0-.31-.73 1.37 1.37 0 0 0-.9-.26 3.09 3.09 0 0 0-1.59.5l-.47-.9a6 6 0 0 1 1.15-.5 4.21 4.21 0 0 1 1.21-.15 2.38 2.38 0 0 1 1.61.5 1.79 1.79 0 0 1 .59 1.4v3.5zm-.46-1.21a.92.92 0 0 0 .45-.65v-.48H57a1.47 1.47 0 0 0-.76.15.55.55 0 0 0-.24.54.65.65 0 0 0 .25.54 1.09 1.09 0 0 0 .69.2 1.7 1.7 0 0 0 .96-.29zm8.36-6.21v7.42H65v-.86a1.93 1.93 0 0 1-.75.69 2.27 2.27 0 0 1-1.05.23 2.54 2.54 0 0 1-1.33-.35 2.35 2.35 0 0 1-.9-1 3.1 3.1 0 0 1-.36-1.36 3.06 3.06 0 0 1 .31-1.42 2.31 2.31 0 0 1 .89-1 2.54 2.54 0 0 1 1.31-.34 2.29 2.29 0 0 1 1.07.24 2 2 0 0 1 .76.69v-2.94zm-1.73 5.94a1.84 1.84 0 0 0 0-2.35 1.43 1.43 0 0 0-1.1-.46 1.41 1.41 0 0 0-1.09.46 1.82 1.82 0 0 0 0 2.35 1.41 1.41 0 0 0 1.09.46 1.43 1.43 0 0 0 1.11-.46zm8.98 1.15a2.54 2.54 0 0 1-1.34.39 1.6 1.6 0 0 1-1.17-.4 1.54 1.54 0 0 1-.44-1.19v-2.65h-.75v-.95h.76v-1.47h1.29v1.47h1.53v.95h-1.5v2.41a.78.78 0 0 0 .14.52.54.54 0 0 0 .42.16 1.86 1.86 0 0 0 .76-.22zm5.75-4.51a2.09 2.09 0 0 1 .53 1.51v3.34h-1.31v-3a1.21 1.21 0 0 0-.32-.89 1.17 1.17 0 0 0-.87-.32 1.33 1.33 0 0 0-1 .44 1.6 1.6 0 0 0-.38 1.1v2.63h-1.3v-7.39h1.3v3.09a2 2 0 0 1 1.93-1.07 1.91 1.91 0 0 1 1.42.56zm3.16-2.59a.78.78 0 0 1 .21.56.77.77 0 0 1-.21.55.75.75 0 0 1-1.06 0 .77.77 0 0 1-.21-.55.78.78 0 0 1 .21-.56.75.75 0 0 1 1.06 0zm-1.17 2.08h1.3v5.35h-1.3zm5.28 1.1a2.57 2.57 0 0 0-.76-.13 1 1 0 0 0-.53.12.38.38 0 0 0-.2.35.42.42 0 0 0 .25.38 3.92 3.92 0 0 0 .78.29 7.5 7.5 0 0 1 .92.33 1.73 1.73 0 0 1 .63.49 1.31 1.31 0 0 1 .26.85 1.38 1.38 0 0 1-.6 1.2 2.57 2.57 0 0 1-1.51.42 3.83 3.83 0 0 1-1.21-.19 2.83 2.83 0 0 1-1-.56L84 17a2.65 2.65 0 0 0 .86.48 2.88 2.88 0 0 0 1 .17 1.14 1.14 0 0 0 .58-.12.41.41 0 0 0 .21-.37.45.45 0 0 0-.25-.42 4.45 4.45 0 0 0-.81-.31 6.87 6.87 0 0 1-.88-.31 1.59 1.59 0 0 1-.59-.47 1.29 1.29 0 0 1-.25-.83 1.39 1.39 0 0 1 .58-1.21 2.41 2.41 0 0 1 1.45-.42 3.72 3.72 0 0 1 1 .15 3.25 3.25 0 0 1 .92.42l-.47.94a3.83 3.83 0 0 0-.82-.3zM20.8 25.61a2.33 2.33 0 0 1 .89 1A3.12 3.12 0 0 1 22 28a3.07 3.07 0 0 1-.31 1.41 2.29 2.29 0 0 1-.88 1 2.53 2.53 0 0 1-1.32.34 2.3 2.3 0 0 1-1.06-.23 2 2 0 0 1-.76-.69v2.81h-1.3V25.3h1.3v.88a1.93 1.93 0 0 1 .74-.68 2.27 2.27 0 0 1 1.06-.24 2.53 2.53 0 0 1 1.33.35zm-.54 3.52a1.65 1.65 0 0 0 .42-1.13 1.63 1.63 0 0 0-.42-1.16 1.53 1.53 0 0 0-2.17 0 1.83 1.83 0 0 0 0 2.33 1.42 1.42 0 0 0 1.09.45 1.4 1.4 0 0 0 1.08-.49zm4.04-5.91a.78.78 0 0 1 .21.56.77.77 0 0 1-.21.55.75.75 0 0 1-1.06 0 .77.77 0 0 1-.21-.55.78.78 0 0 1 .21-.56.75.75 0 0 1 1.06 0zm-1.17 2.08h1.3v5.35h-1.3zm5.19 1.1a1.37 1.37 0 0 0-1.05.44 1.62 1.62 0 0 0-.41 1.16 1.65 1.65 0 0 0 .41 1.16 1.37 1.37 0 0 0 1.05.44 1.69 1.69 0 0 0 1.44-.6l.81.67a2.36 2.36 0 0 1-.95.8 3.17 3.17 0 0 1-1.37.28 2.85 2.85 0 0 1-1.4-.34 2.39 2.39 0 0 1-1-1 3.12 3.12 0 0 1 0-2.84 2.41 2.41 0 0 1 1-1 2.88 2.88 0 0 1 1.42-.34 3.18 3.18 0 0 1 1.31.26 2.36 2.36 0 0 1 .93.72l-.79.75a1.81 1.81 0 0 0-1.4-.56zm6.49 3.92a2.54 2.54 0 0 1-1.34.39 1.6 1.6 0 0 1-1.13-.41 1.54 1.54 0 0 1-.44-1.19v-2.64h-.75v-.95h.76v-1.47h1.29v1.47h1.53v.95h-1.54v2.41a.78.78 0 0 0 .14.52.54.54 0 0 0 .42.16 1.86 1.86 0 0 0 .76-.22zm5.96-5.02v5.35h-1.31v-1a1.92 1.92 0 0 1-1.86 1 1.86 1.86 0 0 1-1.42-.55 2.09 2.09 0 0 1-.52-1.5v-3.3H37v3a1.22 1.22 0 0 0 .3.88 1.11 1.11 0 0 0 .85.32 1.24 1.24 0 0 0 1-.44 1.64 1.64 0 0 0 .36-1.09V25.3zm3.66.24a2.16 2.16 0 0 1 1.08-.28v1.26a1.77 1.77 0 0 0-1.33.39 1.48 1.48 0 0 0-.5 1.17v2.58h-1.3V25.3h1.3v1a1.94 1.94 0 0 1 .75-.76zm6.15.46a3 3 0 0 1 .64 2v.39h-4a1.49 1.49 0 0 0 1.53 1.22 2 2 0 0 0 .78-.15 1.93 1.93 0 0 0 .66-.45l.7.73a2.71 2.71 0 0 1-1 .68 3.28 3.28 0 0 1-1.28.24 3 3 0 0 1-1.44-.34 2.38 2.38 0 0 1-1-1 3.1 3.1 0 0 1 0-2.83 2.45 2.45 0 0 1 1-1 2.85 2.85 0 0 1 1.41-.35 2.43 2.43 0 0 1 2 .86zM50 27.56a1.3 1.3 0 0 0-.39-.94 1.52 1.52 0 0 0-1.93 0 1.52 1.52 0 0 0-.48.95zm6-4.34a.78.78 0 0 1 .21.56.77.77 0 0 1-.21.55.75.75 0 0 1-1.06 0 .77.77 0 0 1-.21-.55.78.78 0 0 1 .21-.56.75.75 0 0 1 1.06 0zm-1.21 2.08h1.3v5.35h-1.3zm4.65-.84a.64.64 0 0 0-.19.51v.55h1.34v.95h-1.35v4.18h-1.3v-4.18h-.7v-.95h.7V25a1.86 1.86 0 0 1 .26-1 1.66 1.66 0 0 1 .69-.62 2.14 2.14 0 0 1 .95-.21 2.25 2.25 0 0 1 1 .23l-.23 1a1.87 1.87 0 0 0-.66-.16.73.73 0 0 0-.51.22zm9.03 1.35a2.09 2.09 0 0 1 .53 1.5v3.34h-1.31v-3a1.21 1.21 0 0 0-.32-.89 1.17 1.17 0 0 0-.87-.32 1.32 1.32 0 0 0-1 .44 1.61 1.61 0 0 0-.4 1.12v2.63h-1.3V25.3h1.3v1a2 2 0 0 1 1.92-1 1.91 1.91 0 0 1 1.45.51zm6.15.19a3 3 0 0 1 .64 2v.39h-4a1.49 1.49 0 0 0 1.53 1.22 2 2 0 0 0 .78-.15 1.93 1.93 0 0 0 .66-.45l.7.73a2.71 2.71 0 0 1-1 .68 3.28 3.28 0 0 1-1.28.24 3 3 0 0 1-1.44-.34 2.38 2.38 0 0 1-1-1 3.1 3.1 0 0 1 0-2.83 2.45 2.45 0 0 1 1-1 2.85 2.85 0 0 1 1.41-.35 2.43 2.43 0 0 1 2 .86zm-.54 1.57a1.3 1.3 0 0 0-.39-.94 1.52 1.52 0 0 0-1.93 0 1.52 1.52 0 0 0-.48.95zM80.54 26a3 3 0 0 1 .64 2v.39h-4a1.49 1.49 0 0 0 1.53 1.22 2 2 0 0 0 .78-.15 1.92 1.92 0 0 0 .66-.45l.7.73a2.71 2.71 0 0 1-1 .68 3.28 3.28 0 0 1-1.28.24 3 3 0 0 1-1.44-.34 2.38 2.38 0 0 1-1-1 3.1 3.1 0 0 1 0-2.83 2.45 2.45 0 0 1 1-1 2.85 2.85 0 0 1 1.41-.35 2.43 2.43 0 0 1 2 .86zM80 27.56a1.3 1.3 0 0 0-.39-.94 1.52 1.52 0 0 0-1.94 0 1.52 1.52 0 0 0-.48.95zm7.46-4.33v7.42h-1.3v-.86a1.93 1.93 0 0 1-.75.69 2.26 2.26 0 0 1-1.05.23 2.55 2.55 0 0 1-1.36-.34 2.35 2.35 0 0 1-.89-1 3.1 3.1 0 0 1-.3-1.37 3.06 3.06 0 0 1 .31-1.42 2.31 2.31 0 0 1 .89-1 2.53 2.53 0 0 1 1.31-.34 2.28 2.28 0 0 1 1.07.24 2 2 0 0 1 .76.69v-2.94zm-1.73 5.94a1.84 1.84 0 0 0 0-2.35 1.43 1.43 0 0 0-1.09-.46 1.41 1.41 0 0 0-1.09.46 1.82 1.82 0 0 0 0 2.35 1.41 1.41 0 0 0 1.09.46 1.43 1.43 0 0 0 1.1-.46zm10.58-3.36a2.09 2.09 0 0 1 .53 1.51v3.34h-1.31v-3a1.21 1.21 0 0 0-.32-.89 1.17 1.17 0 0 0-.87-.32 1.33 1.33 0 0 0-1 .44 1.6 1.6 0 0 0-.38 1.1v2.63h-1.3v-7.39h1.3v3.09a2 2 0 0 1 1.93-1.07 1.91 1.91 0 0 1 1.42.56zm6.15.19a3 3 0 0 1 .64 2v.39h-4a1.49 1.49 0 0 0 1.53 1.22 2 2 0 0 0 .78-.15 1.92 1.92 0 0 0 .66-.45l.7.73a2.71 2.71 0 0 1-1 .68 3.28 3.28 0 0 1-1.28.24 3 3 0 0 1-1.45-.34 2.38 2.38 0 0 1-1-1 3.11 3.11 0 0 1 0-2.83 2.45 2.45 0 0 1 1-1 2.85 2.85 0 0 1 1.41-.35 2.43 2.43 0 0 1 2.01.86zm-.54 1.57a1.3 1.3 0 0 0-.39-.94 1.52 1.52 0 0 0-1.93 0 1.53 1.53 0 0 0-.48.95zm2.35-4.34h1.3v7.42h-1.3zm7.45 2.38a2.33 2.33 0 0 1 .89 1 3.12 3.12 0 0 1 .32 1.43 3.06 3.06 0 0 1-.31 1.41 2.29 2.29 0 0 1-.88 1 2.53 2.53 0 0 1-1.32.34 2.3 2.3 0 0 1-1.06-.23 2 2 0 0 1-.76-.69v2.81h-1.3V25.3h1.3v.88a1.93 1.93 0 0 1 .74-.68 2.27 2.27 0 0 1 1.06-.24 2.53 2.53 0 0 1 1.32.35zm-.54 3.52a1.65 1.65 0 0 0 .42-1.13 1.64 1.64 0 0 0-.42-1.16 1.53 1.53 0 0 0-2.17 0 1.83 1.83 0 0 0 0 2.33 1.42 1.42 0 0 0 1.09.45 1.41 1.41 0 0 0 1.08-.49z"/><path class="cls-2" d="M151.31 41H9.69A9.7 9.7 0 0 1 0 31.31V9.69A9.7 9.7 0 0 1 9.69 0h141.62A9.7 9.7 0 0 1 161 9.69v21.62a9.7 9.7 0 0 1-9.69 9.69zM9.69 1A8.7 8.7 0 0 0 1 9.69v21.62A8.7 8.7 0 0 0 9.69 40h141.62a8.7 8.7 0 0 0 8.69-8.69V9.69A8.7 8.7 0 0 0 151.31 1z"/><path class="cls-3" d="M151.32 15.09a16 16 0 1 0 .94 5.41 16 16 0 0 0-.94-5.41zm-7.86 15a12.33 12.33 0 0 1-2.33 1.37 12 12 0 0 1-9.72 0 11.81 11.81 0 0 1-2.13-1.22 12 12 0 1 1 14.19-.14z"/><path class="cls-4" d="M148.26 20.5a12 12 0 1 1-12-12 12 12 0 0 1 12 12z"/><path class="cls-5" d="M143.43 30.08a12.13 12.13 0 0 1-14.35.15l.48-.14c1.61-.48 4.18-1.91 4.49-3.33a3.49 3.49 0 0 0 .06-1.1v-.84a4.54 4.54 0 0 1-1.18-1.62 11.91 11.91 0 0 1-.28-1.56s0-.19-.1-.52a.57.57 0 0 1-.54-.54l-.22-1.18a.6.6 0 0 1 .53-.61 9.25 9.25 0 0 1 .13-2.4c.17-.76.85-2.84 4.12-3.23 3.27.38 4 2.47 4.12 3.23a9.23 9.23 0 0 1 .13 2.4.6.6 0 0 1 .52.61l-.22 1.18a.57.57 0 0 1-.54.54c-.06.32-.1.52-.1.52a11.19 11.19 0 0 1-.28 1.56 4.49 4.49 0 0 1-1.18 1.62v.84a3.49 3.49 0 0 0 .07 1.1c.19 1.4 2.74 2.83 4.34 3.32z"/><path class="cls-6" d="M150.73 27.32a16 16 0 0 1-7.64 7.68l-2.51-3.28a12 12 0 0 0 6.88-6.87zm-3.16-18.13a15.94 15.94 0 0 1 3.16 4.49l-3.27 2.5a12 12 0 0 0-6.88-6.87L143.09 6a15.94 15.94 0 0 1 4.48 3.19zM129.44 6l2.51 3.28a12 12 0 0 0-6.87 6.87l-3.28-2.51A16 16 0 0 1 129.44 6zm-1.66 23a11.88 11.88 0 0 0 4.17 2.71L129.44 35a16 16 0 0 1-7.65-7.65l3.28-2.51a11.88 11.88 0 0 0 2.71 4.16z"/><path class="cls-6" d="M146.57 28.37h5.67v6.08h-5.67z"/><path class="cls-7" d="M156.2 32.73a2.49 2.49 0 0 1-2.49 2.49h-7.06a2.92 2.92 0 0 1-2.91-2.91 2.9 2.9 0 0 1 1.68-2.63v-.28a3.33 3.33 0 0 1 3.32-3.32 3.33 3.33 0 0 1 3.08 2.06 1.66 1.66 0 0 1 2.47 2.16 2.46 2.46 0 0 1 1.39.88 2.41 2.41 0 0 1 .52 1.55zm-4.2-1.45a.2.2 0 0 0-.21-.21h-1.45v-2.28a.21.21 0 0 0-.21-.21h-1.25a.21.21 0 0 0-.21.21v2.29h-1.45a.21.21 0 0 0-.21.21.2.2 0 0 0 .06.15l2.29 2.29a.22.22 0 0 0 .3 0l2.34-2.29a.24.24 0 0 0 0-.16z"/></g></g></svg>