<svg xmlns="http://www.w3.org/2000/svg" viewBox="0 0 37.36 25.97"><defs><style>.cls-1{fill:url(#Degradado_sin_nombre_131)}.cls-2{fill:#f22053}.cls-3{fill:#fff}.cls-4{fill:#24b27c}</style><linearGradient id="Degradado_sin_nombre_131" x1="30.89" y1="28.53" x2="5.57" y2="7.28" gradientUnits="userSpaceOnUse"><stop offset="0" stop-color="#ff7f34"/><stop offset="1" stop-color="#ffc44d"/></linearGradient></defs><title>rescuer-donwload-icon</title><g id="Capa_2" data-name="Capa 2"><g id="Capa_1-2" data-name="Capa 1"><path class="cls-1" d="M34.11 20.21a1.27 1.27 0 0 1-1.26-1.26v-2.21A15.69 15.69 0 0 0 22.11 1.89V1.2a1.2 1.2 0 0 0-1.2-1.2h-6.45a1.2 1.2 0 0 0-1.2 1.2v.69A15.24 15.24 0 0 0 2.53 16.42v2.53a1.27 1.27 0 0 1-1.26 1.26A1.26 1.26 0 0 0 0 21.47v1.26A1.26 1.26 0 0 0 1.26 24h32.85a1.26 1.26 0 0 0 1.26-1.26v-1.27a1.26 1.26 0 0 0-1.26-1.26z"/><path class="cls-2" d="M28.42 20.84H6.95a.63.63 0 0 1 0-1.26h21.47a.63.63 0 0 1 0 1.26z"/><rect class="cls-2" x="12.33" y="5.28" width="10.71" height="12.72" rx="1.33" ry="1.33"/><rect class="cls-3" x="16.73" y="7.5" width="1.91" height="8.28" rx=".21" ry=".21"/><rect class="cls-3" x="13.55" y="10.68" width="8.28" height="1.91" rx=".21" ry=".21"/><path class="cls-3" d="M27.73 19.11h5.67v6.08h-5.67z"/><path class="cls-4" d="M37.36 23.47A2.49 2.49 0 0 1 34.87 26H27.8a2.92 2.92 0 0 1-2.91-2.91 2.9 2.9 0 0 1 1.68-2.63v-.28a3.33 3.33 0 0 1 3.32-3.32A3.33 3.33 0 0 1 33 18.89 1.66 1.66 0 0 1 35.43 21a2.46 2.46 0 0 1 1.39.88 2.41 2.41 0 0 1 .54 1.59zM33.21 22a.2.2 0 0 0-.21-.21h-1.46v-2.26a.21.21 0 0 0-.21-.21h-1.24a.21.21 0 0 0-.21.21v2.29h-1.45a.21.21 0 0 0-.21.21.2.2 0 0 0 .06.15l2.29 2.29a.22.22 0 0 0 .3 0l2.28-2.28a.24.24 0 0 0 .06-.19z"/></g></g></svg>